<svg width="20" height="21" viewBox="0 0 20 21" fill="none" xmlns="http://www.w3.org/2000/svg">
<path d="M14.5243 9.36765C14.6899 9.42725 14.8409 9.52135 14.9673 9.64372C15.2098 9.9239 15.3576 10.2734 15.3899 10.6425H12.6432C12.6556 10.5017 12.6813 10.3623 12.7201 10.2263C12.7644 10.0655 12.8406 9.91529 12.9442 9.78458C13.0585 9.64029 13.2027 9.52237 13.3667 9.43884C13.5666 9.34353 13.7856 9.29534 14.007 9.29799C14.1824 9.2843 14.3587 9.30805 14.5243 9.36765Z" fill="#142634"/>
<path d="M7.7774 7.45409C7.89831 7.5272 7.99772 7.63102 8.06551 7.755C8.14321 7.91652 8.18056 8.09447 8.17435 8.2736C8.19043 8.41628 8.17274 8.56074 8.12269 8.69531C8.07264 8.82988 7.99164 8.9508 7.88624 9.0483C7.649 9.22088 7.3597 9.30676 7.06673 9.29159H5.14599V7.26842H6.88105C7.0438 7.26783 7.20638 7.27853 7.36764 7.30043C7.51247 7.32618 7.65135 7.37826 7.7774 7.45409Z" fill="#142634"/>
<path d="M7.16916 10.5465C7.51688 10.529 7.86017 10.6306 8.14233 10.8346C8.28218 10.9598 8.38874 11.1178 8.45244 11.2943C8.51614 11.4709 8.53498 11.6605 8.50727 11.8462C8.51772 12.04 8.48034 12.2335 8.39843 12.4096C8.33003 12.5491 8.22629 12.6683 8.09752 12.7553C7.96076 12.8214 7.81334 12.8625 7.66215 12.877C7.48993 12.9162 7.31378 12.9355 7.13715 12.9346H5.14599V10.5465H7.16916Z" fill="#142634"/>
<path fill-rule="evenodd" clip-rule="evenodd" d="M0.436 2.37858C0 3.23458 0 4.35458 0 6.59458V13.7946C0 16.0346 0 17.1546 0.436 18.0106C0.819488 18.7632 1.43139 19.3751 2.184 19.7586C3.04 20.1946 4.16 20.1946 6.4 20.1946H13.6C15.84 20.1946 16.96 20.1946 17.816 19.7586C18.5686 19.3751 19.1805 18.7632 19.564 18.0106C20 17.1546 20 16.0346 20 13.7946V6.59458C20 4.35458 20 3.23458 19.564 2.37858C19.1805 1.62597 18.5686 1.01407 17.816 0.63058C16.96 0.19458 15.84 0.19458 13.6 0.19458H6.4C4.16 0.19458 3.04 0.19458 2.184 0.63058C1.43139 1.01407 0.819488 1.62597 0.436 2.37858ZM13.0338 12.9346C12.7484 12.5951 12.5999 12.1613 12.6176 11.7181V11.6925H17.0353C17.0703 11.2241 17.0314 10.7531 16.9201 10.2968C16.8183 9.86919 16.6357 9.465 16.3823 9.10592C16.1304 8.75833 15.8018 8.47351 15.4219 8.2736C14.9969 8.07944 14.5311 7.99155 14.0646 8.0175C13.6244 8.01134 13.188 8.09862 12.7841 8.2736C12.4077 8.43925 12.0698 8.68124 11.7917 8.98427C11.5102 9.28788 11.2924 9.64494 11.1515 10.0343C10.8539 10.8906 10.8539 11.8222 11.1515 12.6785C11.2923 13.066 11.5101 13.421 11.7917 13.7221C12.0728 14.0041 12.4113 14.2225 12.7841 14.3623C13.1926 14.5198 13.6268 14.6001 14.0646 14.5992C14.6928 14.6152 15.3118 14.446 15.8445 14.1126C16.3878 13.7176 16.7753 13.1443 16.9393 12.4928H15.4603C15.3725 12.7224 15.2131 12.9177 15.0057 13.0498C14.7467 13.2292 14.4372 13.3212 14.1222 13.3123C13.9247 13.3254 13.7267 13.2987 13.5397 13.2338C13.3528 13.1689 13.1807 13.0672 13.0338 12.9346ZM15.7036 6.35287H12.2719V7.2172H15.7036V6.35287ZM8.48807 14.2919C8.8359 14.2054 9.16403 14.0533 9.45483 13.8437C9.73652 13.6363 9.96116 13.361 10.1079 13.0434C10.2815 12.6914 10.3672 12.3026 10.3576 11.9102C10.3751 11.4195 10.2434 10.9351 9.97983 10.5209C9.70016 10.1215 9.28684 9.83535 8.81459 9.71415C9.16161 9.55667 9.46007 9.30905 9.67892 8.99708C9.88377 8.67191 9.98636 8.29276 9.97343 7.90866C9.98352 7.56153 9.91798 7.21635 9.78136 6.89708C9.6559 6.63988 9.46627 6.41937 9.23075 6.25683C8.97343 6.08214 8.684 5.96028 8.37922 5.8983C8.01531 5.82032 7.64374 5.78381 7.2716 5.78945H3.27648V14.4327H7.38045C7.75433 14.4362 8.12695 14.3888 8.48807 14.2919Z" fill="#142634"/>
</svg>
