<svg width="20" height="21" viewBox="0 0 20 21" fill="none" xmlns="http://www.w3.org/2000/svg">
<path d="M14.5243 9.36777C14.6899 9.42737 14.8409 9.52148 14.9673 9.64384C15.2098 9.92402 15.3576 10.2735 15.3899 10.6426H12.6432C12.6556 10.5018 12.6813 10.3624 12.7201 10.2265C12.7644 10.0657 12.8406 9.91541 12.9442 9.7847C13.0585 9.64042 13.2027 9.52249 13.3667 9.43897C13.5666 9.34365 13.7856 9.29546 14.007 9.29811C14.1824 9.28442 14.3587 9.30817 14.5243 9.36777Z" fill="#142634"/>
<path d="M7.7774 7.45421C7.89831 7.52732 7.99772 7.63114 8.06551 7.75513C8.14321 7.91664 8.18056 8.0946 8.17435 8.27372C8.19043 8.4164 8.17274 8.56086 8.12269 8.69543C8.07264 8.83001 7.99164 8.95092 7.88624 9.04842C7.649 9.221 7.3597 9.30688 7.06673 9.29171H5.14599V7.26854H6.88105C7.0438 7.26795 7.20638 7.27865 7.36764 7.30055C7.51247 7.3263 7.65135 7.37838 7.7774 7.45421Z" fill="#142634"/>
<path d="M7.16916 10.5466C7.51688 10.5291 7.86017 10.6307 8.14233 10.8347C8.28218 10.9599 8.38874 11.1179 8.45244 11.2944C8.51614 11.471 8.53498 11.6606 8.50727 11.8463C8.51772 12.0402 8.48034 12.2337 8.39843 12.4097C8.33003 12.5492 8.22629 12.6684 8.09752 12.7554C7.96076 12.8215 7.81334 12.8627 7.66215 12.8771C7.48993 12.9163 7.31378 12.9356 7.13715 12.9347H5.14599V10.5466H7.16916Z" fill="#142634"/>
<path fill-rule="evenodd" clip-rule="evenodd" d="M0.436 2.3787C0 3.2347 0 4.3547 0 6.5947V13.7947C0 16.0347 0 17.1547 0.436 18.0107C0.819488 18.7633 1.43139 19.3752 2.184 19.7587C3.04 20.1947 4.16 20.1947 6.4 20.1947H13.6C15.84 20.1947 16.96 20.1947 17.816 19.7587C18.5686 19.3752 19.1805 18.7633 19.564 18.0107C20 17.1547 20 16.0347 20 13.7947V6.5947C20 4.3547 20 3.2347 19.564 2.3787C19.1805 1.62609 18.5686 1.01419 17.816 0.630702C16.96 0.194702 15.84 0.194702 13.6 0.194702H6.4C4.16 0.194702 3.04 0.194702 2.184 0.630702C1.43139 1.01419 0.819488 1.62609 0.436 2.3787ZM13.0338 12.9347C12.7484 12.5952 12.5999 12.1614 12.6176 11.7182V11.6926H17.0353C17.0703 11.2242 17.0314 10.7532 16.9201 10.2969C16.8183 9.86931 16.6357 9.46512 16.3823 9.10604C16.1304 8.75845 15.8018 8.47363 15.4219 8.27372C14.9969 8.07956 14.5311 7.99167 14.0646 8.01763C13.6244 8.01146 13.188 8.09875 12.7841 8.27372C12.4077 8.43937 12.0698 8.68137 11.7917 8.98439C11.5102 9.288 11.2924 9.64506 11.1515 10.0344C10.8539 10.8907 10.8539 11.8223 11.1515 12.6786C11.2923 13.0661 11.5101 13.4211 11.7917 13.7222C12.0728 14.0043 12.4113 14.2226 12.7841 14.3624C13.1926 14.5199 13.6268 14.6002 14.0646 14.5993C14.6928 14.6153 15.3118 14.4461 15.8445 14.1127C16.3878 13.7177 16.7753 13.1444 16.9393 12.4929H15.4603C15.3725 12.7226 15.2131 12.9178 15.0057 13.0499C14.7467 13.2293 14.4372 13.3213 14.1222 13.3124C13.9247 13.3255 13.7267 13.2988 13.5397 13.2339C13.3528 13.169 13.1807 13.0673 13.0338 12.9347ZM15.7036 6.35299H12.2719V7.21732H15.7036V6.35299ZM8.48807 14.292C8.8359 14.2055 9.16403 14.0534 9.45483 13.8438C9.73652 13.6364 9.96116 13.3611 10.1079 13.0435C10.2815 12.6915 10.3672 12.3027 10.3576 11.9103C10.3751 11.4196 10.2434 10.9352 9.97983 10.521C9.70016 10.1216 9.28684 9.83547 8.81459 9.71427C9.16161 9.55679 9.46007 9.30917 9.67892 8.9972C9.88377 8.67203 9.98636 8.29288 9.97343 7.90878C9.98352 7.56165 9.91798 7.21648 9.78136 6.8972C9.6559 6.64001 9.46627 6.4195 9.23075 6.25696C8.97343 6.08227 8.684 5.9604 8.37922 5.89842C8.01531 5.82045 7.64374 5.78393 7.2716 5.78958H3.27648V14.4329H7.38045C7.75433 14.4364 8.12695 14.389 8.48807 14.292Z" fill="#142634"/>
</svg>
