<svg xmlns="http://www.w3.org/2000/svg" height="24px" viewBox="0 0 24 24" width="24px" class="styled__Svg-sc-1j66vyb-0 jqcukv"><path d="M15.23 9.368c.165.06.316.153.442.276.243.28.39.63.423.999h-2.747c.013-.141.038-.28.077-.417.044-.16.12-.31.224-.441a1.28 1.28 0 0 1 .423-.346c.2-.095.419-.144.64-.14.175-.015.352.01.517.069ZM8.482 7.454a.8.8 0 0 1 .289.301c.077.162.115.34.108.519a.916.916 0 0 1-.288.774 1.28 1.28 0 0 1-.82.244h-1.92V7.269h1.735c.163-.001.325.01.487.032.145.025.283.077.41.153Zm-.608 3.093a1.53 1.53 0 0 1 .973.288 1.134 1.134 0 0 1 .365 1.011c.01.194-.027.388-.108.564a.89.89 0 0 1-.301.345 1.28 1.28 0 0 1-.436.122 2.26 2.26 0 0 1-.525.058h-1.99v-2.388h2.022Z" fill="#fff"></path><path fill-rule="evenodd" clip-rule="evenodd" d="M1.141 2.379C.705 3.235.705 4.355.705 6.595v7.2c0 2.24 0 3.36.436 4.216a4 4 0 0 0 1.748 1.748c.856.436 1.976.436 4.216.436h7.2c2.24 0 3.36 0 4.216-.436a4 4 0 0 0 1.748-1.748c.436-.856.436-1.976.436-4.216v-7.2c0-2.24 0-3.36-.436-4.216A4 4 0 0 0 18.521.63c-.856-.436-1.976-.436-4.216-.436h-7.2c-2.24 0-3.36 0-4.216.436a4 4 0 0 0-1.748 1.748ZM13.74 12.935a1.78 1.78 0 0 1-.416-1.217v-.025h4.417a4.48 4.48 0 0 0-.115-1.396 3.45 3.45 0 0 0-.538-1.191 2.791 2.791 0 0 0-.96-.832 2.881 2.881 0 0 0-1.357-.256 3.111 3.111 0 0 0-1.28.256 2.97 2.97 0 0 0-.993.71c-.282.304-.5.661-.64 1.05a4.026 4.026 0 0 0 0 2.645c.14.387.358.742.64 1.043.28.282.62.5.992.64a3.54 3.54 0 0 0 1.28.237 3.2 3.2 0 0 0 1.78-.486 2.867 2.867 0 0 0 1.095-1.62h-1.479a1.14 1.14 0 0 1-.454.557c-.26.18-.569.271-.884.262a1.478 1.478 0 0 1-1.088-.377Zm2.67-6.582h-3.432v.864h3.432v-.864Zm-7.216 7.939c.348-.086.676-.239.967-.448.282-.208.506-.483.653-.8.174-.353.26-.741.25-1.134a2.426 2.426 0 0 0-.378-1.389 2.04 2.04 0 0 0-1.165-.807c.347-.157.645-.405.864-.717.205-.325.307-.704.294-1.088a2.393 2.393 0 0 0-.192-1.012 1.664 1.664 0 0 0-.55-.64 2.35 2.35 0 0 0-.852-.359 4.93 4.93 0 0 0-1.107-.108H3.982v8.643h4.104a4.12 4.12 0 0 0 1.107-.141Z" fill="#fff"></path></svg>