<svg width="20" height="20" viewBox="0 0 20 20" fill="none" xmlns="http://www.w3.org/2000/svg">
<path d="M14.5243 9.17307C14.6899 9.23267 14.8409 9.32677 14.9673 9.44914C15.2098 9.72932 15.3576 10.0788 15.3899 10.4479H12.6432C12.6556 10.3071 12.6813 10.1677 12.7201 10.0318C12.7644 9.87096 12.8406 9.72071 12.9442 9.59C13.0585 9.44571 13.2027 9.32779 13.3667 9.24426C13.5666 9.14895 13.7856 9.10076 14.007 9.10341C14.1824 9.08972 14.3587 9.11347 14.5243 9.17307Z" fill="white"/>
<path d="M7.7774 7.25951C7.89831 7.33262 7.99772 7.43644 8.06551 7.56042C8.14321 7.72194 8.18056 7.89989 8.17435 8.07902C8.19043 8.2217 8.17274 8.36616 8.12269 8.50073C8.07264 8.6353 7.99164 8.75622 7.88624 8.85371C7.649 9.0263 7.3597 9.11218 7.06673 9.09701H5.14599V7.07384H6.88105C7.0438 7.07325 7.20638 7.08395 7.36764 7.10585C7.51247 7.1316 7.65135 7.18368 7.7774 7.25951Z" fill="white"/>
<path d="M7.16916 10.3519C7.51688 10.3344 7.86017 10.436 8.14233 10.64C8.28218 10.7652 8.38874 10.9232 8.45244 11.0997C8.51614 11.2763 8.53498 11.4659 8.50727 11.6516C8.51772 11.8455 8.48034 12.0389 8.39843 12.215C8.33003 12.3545 8.22629 12.4737 8.09752 12.5607C7.96076 12.6268 7.81334 12.668 7.66215 12.6824C7.48993 12.7216 7.31378 12.7409 7.13715 12.74H5.14599V10.3519H7.16916Z" fill="white"/>
<path fill-rule="evenodd" clip-rule="evenodd" d="M0.436 2.184C0 3.04 0 4.16 0 6.4V13.6C0 15.84 0 16.96 0.436 17.816C0.819488 18.5686 1.43139 19.1805 2.184 19.564C3.04 20 4.16 20 6.4 20H13.6C15.84 20 16.96 20 17.816 19.564C18.5686 19.1805 19.1805 18.5686 19.564 17.816C20 16.96 20 15.84 20 13.6V6.4C20 4.16 20 3.04 19.564 2.184C19.1805 1.43139 18.5686 0.819488 17.816 0.436C16.96 0 15.84 0 13.6 0H6.4C4.16 0 3.04 0 2.184 0.436C1.43139 0.819488 0.819488 1.43139 0.436 2.184ZM13.0338 12.74C12.7484 12.4005 12.5999 11.9667 12.6176 11.5235V11.4979H17.0353C17.0703 11.0295 17.0314 10.5585 16.9201 10.1022C16.8183 9.67461 16.6357 9.27042 16.3823 8.91134C16.1304 8.56375 15.8018 8.27893 15.4219 8.07902C14.9969 7.88486 14.5311 7.79697 14.0646 7.82292C13.6244 7.81676 13.188 7.90404 12.7841 8.07902C12.4077 8.24467 12.0698 8.48666 11.7917 8.78969C11.5102 9.0933 11.2924 9.45036 11.1515 9.83969C10.8539 10.696 10.8539 11.6276 11.1515 12.4839C11.2923 12.8714 11.5101 13.2264 11.7917 13.5275C12.0728 13.8096 12.4113 14.0279 12.7841 14.1677C13.1926 14.3252 13.6268 14.4055 14.0646 14.4046C14.6928 14.4206 15.3118 14.2514 15.8445 13.918C16.3878 13.523 16.7753 12.9497 16.9393 12.2982H15.4603C15.3725 12.5278 15.2131 12.7231 15.0057 12.8552C14.7467 13.0346 14.4372 13.1266 14.1222 13.1177C13.9247 13.1308 13.7267 13.1041 13.5397 13.0392C13.3528 12.9743 13.1807 12.8726 13.0338 12.74ZM15.7036 6.15829H12.2719V7.02262H15.7036V6.15829ZM8.48807 14.0973C8.8359 14.0108 9.16403 13.8587 9.45483 13.6491C9.73652 13.4417 9.96116 13.1664 10.1079 12.8488C10.2815 12.4968 10.3672 12.108 10.3576 11.7156C10.3751 11.2249 10.2434 10.7405 9.97983 10.3263C9.70016 9.92691 9.28684 9.64077 8.81459 9.51957C9.16161 9.36209 9.46007 9.11447 9.67892 8.8025C9.88377 8.47733 9.98636 8.09818 9.97343 7.71408C9.98352 7.36695 9.91798 7.02177 9.78136 6.7025C9.6559 6.4453 9.46627 6.22479 9.23075 6.06225C8.97343 5.88756 8.684 5.7657 8.37922 5.70372C8.01531 5.62574 7.64374 5.58923 7.2716 5.59487H3.27648V14.2382H7.38045C7.75433 14.2417 8.12695 14.1943 8.48807 14.0973Z" fill="white"/>
</svg>
