<svg width="32" height="35" viewBox="0 0 32 35" fill="none" xmlns="http://www.w3.org/2000/svg">
<path d="M32 22.272C32 20.48 30.5493 19.1147 28.8427 19.1147C27.136 19.1147 25.6853 20.5653 25.6853 22.272C25.6853 24.064 27.136 25.4293 28.8427 25.4293C30.5493 25.4293 32 23.9787 32 22.272Z" fill="#142634"/>
<path d="M4.608 28.928C4.352 28.5867 4.01066 28.2453 3.584 28.16C3.328 28.0747 2.98667 27.9893 2.64533 27.9893H0V34.2187H2.64533C3.584 34.2187 4.26667 33.792 4.69333 33.024C5.03467 32.4267 5.20533 31.744 5.20533 30.8907C5.20533 30.5493 5.20533 30.208 5.12 29.8667C4.94933 29.6107 4.864 29.2693 4.608 28.928ZM3.66933 32.256C3.41333 32.8533 2.98667 33.1947 2.38933 33.1947H1.19466V29.184H2.38933C2.98667 29.184 3.41333 29.3547 3.584 29.696C3.75466 30.0373 3.84 30.5493 3.84 31.1467C3.84 31.488 3.75467 31.9147 3.66933 32.256Z" fill="#142634"/>
<path d="M7.424 31.488H10.496V30.464H7.424V29.0987H10.752V27.9893H6.144V34.2187H10.8373V33.1093H7.424V31.488Z" fill="#142634"/>
<path d="M15.104 30.72L13.9947 30.464C13.568 30.3787 13.312 30.2933 13.1413 30.208C12.9707 30.1227 12.8 29.952 12.8 29.696C12.8 29.44 12.8853 29.2693 13.1413 29.0987C13.312 28.928 13.6533 28.928 13.9947 28.928C14.336 28.928 14.592 29.0133 14.7627 29.0987C15.104 29.2693 15.2747 29.5253 15.2747 29.8667H16.5547C16.5547 29.184 16.2987 28.672 15.7867 28.3307C15.36 27.9893 14.7627 27.8187 14.08 27.8187C13.312 27.8187 12.7147 27.9893 12.288 28.3307C11.8613 28.672 11.6907 29.184 11.6907 29.696C11.6907 30.2933 11.8613 30.72 12.288 31.0613C12.544 31.232 12.9707 31.4027 13.6533 31.5733L14.336 31.744C14.7627 31.8293 15.0187 31.9147 15.1893 32C15.36 32.0853 15.4453 32.256 15.4453 32.512C15.4453 32.8533 15.2747 33.1093 14.9333 33.1947C14.7627 33.28 14.5067 33.28 14.1653 33.28C13.6533 33.28 13.312 33.1947 13.056 32.9387C12.9707 32.768 12.8853 32.5973 12.8 32.3413H11.6053C11.6053 33.024 11.8613 33.4507 12.288 33.8773C12.7147 34.2187 13.3973 34.3893 14.2507 34.3893C15.0187 34.3893 15.7013 34.2187 16.128 33.792C16.5547 33.4507 16.8107 32.9387 16.8107 32.3413C16.8107 31.8293 16.64 31.4027 16.2987 31.0613C15.9573 30.976 15.5307 30.8053 15.104 30.72Z" fill="#142634"/>
<path d="M18.7733 27.9893H17.4933V34.2187H18.7733V27.9893Z" fill="#142634"/>
<path d="M22.8693 31.9147H24.32C24.2347 32.3413 24.064 32.6827 23.808 32.8533C23.552 33.1093 23.2107 33.1947 22.784 33.1947C22.3573 33.1947 21.9307 33.024 21.5893 32.6827C21.248 32.3413 21.0773 31.8293 21.0773 31.0613C21.0773 30.2933 21.248 29.7813 21.5893 29.3547C21.9307 29.0133 22.3573 28.7573 22.784 28.7573C23.04 28.7573 23.296 28.8427 23.4667 28.928C23.808 29.0987 24.064 29.3547 24.1493 29.7813H25.4293C25.344 29.184 25.088 28.672 24.576 28.2453C24.064 27.8187 23.4667 27.648 22.6987 27.648C21.76 27.648 21.0773 27.9893 20.48 28.5867C19.968 29.184 19.6267 29.952 19.6267 30.976C19.6267 32 19.8827 32.768 20.48 33.28C20.992 33.8773 21.6747 34.1333 22.528 34.1333C23.04 34.1333 23.4667 34.048 23.808 33.792C23.9787 33.7067 24.2347 33.4507 24.4907 33.1947L24.6613 33.9627H25.5147V30.6347H22.9547V31.9147H22.8693Z" fill="#142634"/>
<path d="M30.464 32.3413L28.0747 27.9893H26.7093V34.2187H27.904V29.8667L30.3787 34.2187H31.744V27.9893H30.464V32.3413Z" fill="#142634"/>
<path d="M22.1867 19.1147C27.4773 19.1147 31.744 14.848 31.744 9.55733C31.744 6.144 29.952 3.15733 27.3067 1.45067C25.856 0.512 24.064 0 22.1867 0C19.2 0 17.92 0 16.0427 0C13.4827 0 12.7147 0.768 12.7147 2.64533C12.7147 3.41333 12.7147 6.656 12.8 9.64267V15.9573C12.8 17.7493 11.3493 19.2 9.55733 19.2C7.76533 19.2 6.31466 17.7493 6.31466 15.9573V7.85067C6.31466 6.99733 5.97333 6.48533 5.12 6.48533H1.19466C0.341331 6.48533 0.085332 7.08267 0.085332 7.85067V15.9573C0.085332 21.248 4.352 25.5147 9.64267 25.5147C14.6773 25.5147 17.408 21.9307 18.5173 19.968C18.944 19.2853 19.0293 19.2 19.8827 19.2L22.1867 19.1147ZM18.944 9.64267C18.944 7.85067 20.3947 6.4 22.1867 6.4C23.9787 6.4 25.4293 7.85067 25.4293 9.64267C25.4293 11.4347 23.9787 12.8853 22.1867 12.8853C20.3947 12.8853 18.944 11.4347 18.944 9.64267Z" fill="#142634"/>
</svg>
