<svg width="20" height="20" viewBox="0 0 20 20" fill="none" xmlns="http://www.w3.org/2000/svg">
<path d="M10 7C9.40666 7 8.82664 7.17595 8.33329 7.50559C7.83994 7.83524 7.45542 8.30377 7.22836 8.85195C7.0013 9.40013 6.94189 10.0033 7.05764 10.5853C7.1734 11.1672 7.45912 11.7018 7.87868 12.1213C8.29824 12.5409 8.83278 12.8266 9.41473 12.9424C9.99667 13.0581 10.5999 12.9987 11.148 12.7716C11.6962 12.5446 12.1648 12.1601 12.4944 11.6667C12.8241 11.1734 13 10.5933 13 10C13 9.20435 12.6839 8.44129 12.1213 7.87868C11.5587 7.31607 10.7956 7 10 7Z" fill="white"/>
<path fill-rule="evenodd" clip-rule="evenodd" d="M0.436 2.184C0 3.04 0 4.16 0 6.4V13.6C0 15.84 0 16.96 0.436 17.816C0.819488 18.5686 1.43139 19.1805 2.184 19.564C3.04 20 4.16 20 6.4 20H13.6C15.84 20 16.96 20 17.816 19.564C18.5686 19.1805 19.1805 18.5686 19.564 17.816C20 16.96 20 15.84 20 13.6V6.4C20 4.16 20 3.04 19.564 2.184C19.1805 1.43139 18.5686 0.819488 17.816 0.436C16.96 0 15.84 0 13.6 0H6.4C4.16 0 3.04 0 2.184 0.436C1.43139 0.819488 0.819488 1.43139 0.436 2.184ZM16.042 5.084C16.2481 5.084 16.4495 5.02289 16.6209 4.90839C16.7923 4.7939 16.9258 4.63116 17.0047 4.44076C17.0835 4.25036 17.1042 4.04084 17.064 3.83872C17.0238 3.63659 16.9245 3.45092 16.7788 3.30519C16.6331 3.15947 16.4474 3.06023 16.2453 3.02002C16.0432 2.97982 15.8336 3.00045 15.6432 3.07932C15.4528 3.15818 15.2901 3.29174 15.1756 3.4631C15.0611 3.63445 15 3.83591 15 4.042C15.0003 4.31818 15.1102 4.58296 15.3055 4.77816C15.5009 4.97336 15.7658 5.084 16.042 5.084ZM5 10C5 9.01109 5.29324 8.04439 5.84265 7.22215C6.39206 6.3999 7.17295 5.75904 8.08658 5.3806C9.00021 5.00216 10.0055 4.90315 10.9755 5.09607C11.9454 5.289 12.8363 5.7652 13.5355 6.46447C14.2348 7.16373 14.711 8.05464 14.9039 9.02455C15.0969 9.99445 14.9978 10.9998 14.6194 11.9134C14.241 12.827 13.6001 13.6079 12.7779 14.1573C11.9556 14.7068 10.9889 15 10 15C8.67392 15 7.40215 14.4732 6.46447 13.5355C5.52678 12.5979 5 11.3261 5 10Z" fill="white"/>
</svg>
