<svg width="20" height="20" viewBox="0 0 20 20" fill="none" xmlns="http://www.w3.org/2000/svg">
<path fill-rule="evenodd" clip-rule="evenodd" d="M0.436 2.184C0 3.04 0 4.16 0 6.4V13.6C0 15.84 0 16.96 0.436 17.816C0.819488 18.5686 1.43139 19.1805 2.184 19.564C3.04 20 4.16 20 6.4 20H13.6C15.84 20 16.96 20 17.816 19.564C18.5686 19.1805 19.1805 18.5686 19.564 17.816C20 16.96 20 15.84 20 13.6V6.4C20 4.16 20 3.04 19.564 2.184C19.1805 1.43139 18.5686 0.819488 17.816 0.436C16.96 0 15.84 0 13.6 0H6.4C4.16 0 3.04 0 2.184 0.436C1.43139 0.819488 0.819488 1.43139 0.436 2.184ZM8.18493 17.0846H11.0714V10.0013H12.9927L13.2584 7.56641H11.0802V6.34453C11.0802 5.70703 11.1334 5.36172 12.0365 5.36172H13.2318V2.91797H11.3104C8.99951 2.91797 8.18493 4.10443 8.18493 6.09661V7.55755H6.7417V10.0013H8.18493V17.0846Z" fill="white"/>
</svg>
