<svg width="20" height="20" viewBox="0 0 20 20" fill="none" xmlns="http://www.w3.org/2000/svg">
<path fill-rule="evenodd" clip-rule="evenodd" d="M0.436 2.184C0 3.04 0 4.16 0 6.4V13.6C0 15.84 0 16.96 0.436 17.816C0.819488 18.5686 1.43139 19.1805 2.184 19.564C3.04 20 4.16 20 6.4 20H13.6C15.84 20 16.96 20 17.816 19.564C18.5686 19.1805 19.1805 18.5686 19.564 17.816C20 16.96 20 15.84 20 13.6V6.4C20 4.16 20 3.04 19.564 2.184C19.1805 1.43139 18.5686 0.819488 17.816 0.436C16.96 0 15.84 0 13.6 0H6.4C4.16 0 3.04 0 2.184 0.436C1.43139 0.819488 0.819488 1.43139 0.436 2.184ZM4.166 6.667V15.833H6.666V6.667H4.166ZM3.959 4.14C3.96117 4.42808 4.04858 4.70908 4.21022 4.94756C4.37185 5.18604 4.60046 5.37133 4.86724 5.48007C5.13403 5.58882 5.42703 5.61614 5.70932 5.55861C5.99161 5.50108 6.25055 5.36126 6.45349 5.15679C6.65644 4.95231 6.79431 4.69233 6.84972 4.40962C6.90513 4.1269 6.8756 3.83411 6.76486 3.56815C6.65411 3.3022 6.46711 3.07498 6.22742 2.91514C5.98774 2.75531 5.70609 2.67001 5.418 2.67C5.02963 2.67159 4.65778 2.82732 4.3842 3.10297C4.11061 3.37862 3.95767 3.75163 3.959 4.14ZM14.168 15.833H16.668V10.2C16.668 5.822 11.998 5.981 10.834 8.136V6.667H8.334V15.833H10.834V11.163C10.834 8.569 14.168 8.357 14.168 11.163V15.833Z" fill="white"/>
</svg>
