<svg width="20" height="21" viewBox="0 0 20 21" fill="none" xmlns="http://www.w3.org/2000/svg">
<path fill-rule="evenodd" clip-rule="evenodd" d="M0.436 2.3787C0 3.2347 0 4.3547 0 6.5947V13.7947C0 16.0347 0 17.1547 0.436 18.0107C0.819488 18.7633 1.43139 19.3752 2.184 19.7587C3.04 20.1947 4.16 20.1947 6.4 20.1947H13.6C15.84 20.1947 16.96 20.1947 17.816 19.7587C18.5686 19.3752 19.1805 18.7633 19.564 18.0107C20 17.1547 20 16.0347 20 13.7947V6.5947C20 4.3547 20 3.2347 19.564 2.3787C19.1805 1.62609 18.5686 1.01419 17.816 0.630702C16.96 0.194702 15.84 0.194702 13.6 0.194702H6.4C4.16 0.194702 3.04 0.194702 2.184 0.630702C1.43139 1.01419 0.819488 1.62609 0.436 2.3787ZM8.18493 17.2793H11.0714V10.196H12.9927L13.2584 7.76111H11.0802V6.53923C11.0802 5.90173 11.1334 5.55642 12.0365 5.55642H13.2318V3.11267H11.3104C8.99951 3.11267 8.18493 4.29913 8.18493 6.29132V7.75225H6.7417V10.196H8.18493V17.2793Z" fill="#142634"/>
</svg>
