<svg width="20" height="21" viewBox="0 0 20 21" fill="none" xmlns="http://www.w3.org/2000/svg">
<path fill-rule="evenodd" clip-rule="evenodd" d="M0.436 2.37858C0 3.23458 0 4.35458 0 6.59458V13.7946C0 16.0346 0 17.1546 0.436 18.0106C0.819488 18.7632 1.43139 19.3751 2.184 19.7586C3.04 20.1946 4.16 20.1946 6.4 20.1946H13.6C15.84 20.1946 16.96 20.1946 17.816 19.7586C18.5686 19.3751 19.1805 18.7632 19.564 18.0106C20 17.1546 20 16.0346 20 13.7946V6.59458C20 4.35458 20 3.23458 19.564 2.37858C19.1805 1.62597 18.5686 1.01407 17.816 0.63058C16.96 0.19458 15.84 0.19458 13.6 0.19458H6.4C4.16 0.19458 3.04 0.19458 2.184 0.63058C1.43139 1.01407 0.819488 1.62597 0.436 2.37858ZM8.18493 17.2792H11.0714V10.1959H12.9927L13.2584 7.76099H11.0802V6.53911C11.0802 5.90161 11.1334 5.5563 12.0365 5.5563H13.2318V3.11255H11.3104C8.99951 3.11255 8.18493 4.29901 8.18493 6.29119V7.75213H6.7417V10.1959H8.18493V17.2792Z" fill="#142634"/>
</svg>
