<svg xmlns="http://www.w3.org/2000/svg" height="24px" viewBox="0 0 24 24" width="24px" class="styled__Svg-sc-1j66vyb-0 jqcukv"><path fill-rule="evenodd" clip-rule="evenodd" d="M1.141 2.379C.705 3.235.705 4.355.705 6.595v7.2c0 2.24 0 3.36.436 4.216a4 4 0 0 0 1.748 1.748c.856.436 1.976.436 4.216.436h7.2c2.24 0 3.36 0 4.216-.436a4 4 0 0 0 1.748-1.748c.436-.856.436-1.976.436-4.216v-7.2c0-2.24 0-3.36-.436-4.216A4 4 0 0 0 18.521.63c-.856-.436-1.976-.436-4.216-.436h-7.2c-2.24 0-3.36 0-4.216.436a4 4 0 0 0-1.748 1.748Zm7.749 14.9h2.886v-7.083h1.922l.265-2.435h-2.178V6.54c0-.637.053-.983.957-.983h1.195V3.113h-1.921c-2.311 0-3.126 1.186-3.126 3.178v1.461H7.447v2.444H8.89v7.083Z" fill="#fff"></path></svg>