<svg xmlns="http://www.w3.org/2000/svg" height="24px" viewBox="0 0 24 24" width="24px" class="styled__Svg-sc-1j66vyb-0 jqcukv"><path d="M10.705 7.195a3 3 0 1 0 0 6 3 3 0 0 0 0-6Z" fill="#fff"></path><path fill-rule="evenodd" clip-rule="evenodd" d="M1.141 2.379C.705 3.235.705 4.355.705 6.595v7.2c0 2.24 0 3.36.436 4.216a4 4 0 0 0 1.748 1.748c.856.436 1.976.436 4.216.436h7.2c2.24 0 3.36 0 4.216-.436a4 4 0 0 0 1.748-1.748c.436-.856.436-1.976.436-4.216v-7.2c0-2.24 0-3.36-.436-4.216A4 4 0 0 0 18.521.63c-.856-.436-1.976-.436-4.216-.436h-7.2c-2.24 0-3.36 0-4.216.436a4 4 0 0 0-1.748 1.748Zm15.606 2.9a1.042 1.042 0 1 0 0-2.084 1.042 1.042 0 0 0 0 2.084ZM5.705 10.195a5 5 0 1 1 10 0 5 5 0 0 1-10 0Z" fill="#fff"></path></svg>