<svg width="20" height="21" viewBox="0 0 20 21" fill="none" xmlns="http://www.w3.org/2000/svg">
<path d="M10 7.19458C9.40666 7.19458 8.82664 7.37053 8.33329 7.70017C7.83994 8.02982 7.45542 8.49835 7.22836 9.04653C7.0013 9.59471 6.94189 10.1979 7.05764 10.7799C7.1734 11.3618 7.45912 11.8963 7.87868 12.3159C8.29824 12.7355 8.83278 13.0212 9.41473 13.1369C9.99667 13.2527 10.5999 13.1933 11.148 12.9662C11.6962 12.7392 12.1648 12.3546 12.4944 11.8613C12.8241 11.3679 13 10.7879 13 10.1946C13 9.39893 12.6839 8.63587 12.1213 8.07326C11.5587 7.51065 10.7956 7.19458 10 7.19458Z" fill="#142634"/>
<path fill-rule="evenodd" clip-rule="evenodd" d="M0.436 2.37858C0 3.23458 0 4.35458 0 6.59458V13.7946C0 16.0346 0 17.1546 0.436 18.0106C0.819488 18.7632 1.43139 19.3751 2.184 19.7586C3.04 20.1946 4.16 20.1946 6.4 20.1946H13.6C15.84 20.1946 16.96 20.1946 17.816 19.7586C18.5686 19.3751 19.1805 18.7632 19.564 18.0106C20 17.1546 20 16.0346 20 13.7946V6.59458C20 4.35458 20 3.23458 19.564 2.37858C19.1805 1.62597 18.5686 1.01407 17.816 0.63058C16.96 0.19458 15.84 0.19458 13.6 0.19458H6.4C4.16 0.19458 3.04 0.19458 2.184 0.63058C1.43139 1.01407 0.819488 1.62597 0.436 2.37858ZM16.042 5.27858C16.2481 5.27858 16.4495 5.21747 16.6209 5.10297C16.7923 4.98848 16.9258 4.82574 17.0047 4.63534C17.0835 4.44494 17.1042 4.23542 17.064 4.0333C17.0238 3.83117 16.9245 3.6455 16.7788 3.49977C16.6331 3.35405 16.4474 3.25481 16.2453 3.2146C16.0432 3.1744 15.8336 3.19503 15.6432 3.2739C15.4528 3.35276 15.2901 3.48632 15.1756 3.65768C15.0611 3.82903 15 4.03049 15 4.23658C15.0003 4.51276 15.1102 4.77754 15.3055 4.97274C15.5009 5.16794 15.7658 5.27858 16.042 5.27858ZM5 10.1946C5 9.20567 5.29324 8.23897 5.84265 7.41673C6.39206 6.59448 7.17295 5.95362 8.08658 5.57518C9.00021 5.19674 10.0055 5.09773 10.9755 5.29065C11.9454 5.48358 12.8363 5.95978 13.5355 6.65905C14.2348 7.35831 14.711 8.24922 14.9039 9.21913C15.0969 10.189 14.9978 11.1944 14.6194 12.108C14.241 13.0216 13.6001 13.8025 12.7779 14.3519C11.9556 14.9013 10.9889 15.1946 10 15.1946C8.67392 15.1946 7.40215 14.6678 6.46447 13.7301C5.52678 12.7924 5 11.5207 5 10.1946Z" fill="#142634"/>
</svg>
