<svg width="20" height="21" viewBox="0 0 20 21" fill="none" xmlns="http://www.w3.org/2000/svg">
<path d="M10 7.1947C9.40666 7.1947 8.82664 7.37065 8.33329 7.70029C7.83994 8.02994 7.45542 8.49847 7.22836 9.04665C7.0013 9.59483 6.94189 10.198 7.05764 10.78C7.1734 11.3619 7.45912 11.8965 7.87868 12.316C8.29824 12.7356 8.83278 13.0213 9.41473 13.1371C9.99667 13.2528 10.5999 13.1934 11.148 12.9663C11.6962 12.7393 12.1648 12.3548 12.4944 11.8614C12.8241 11.3681 13 10.788 13 10.1947C13 9.39905 12.6839 8.63599 12.1213 8.07338C11.5587 7.51077 10.7956 7.1947 10 7.1947Z" fill="#142634"/>
<path fill-rule="evenodd" clip-rule="evenodd" d="M0.436 2.3787C0 3.2347 0 4.3547 0 6.5947V13.7947C0 16.0347 0 17.1547 0.436 18.0107C0.819488 18.7633 1.43139 19.3752 2.184 19.7587C3.04 20.1947 4.16 20.1947 6.4 20.1947H13.6C15.84 20.1947 16.96 20.1947 17.816 19.7587C18.5686 19.3752 19.1805 18.7633 19.564 18.0107C20 17.1547 20 16.0347 20 13.7947V6.5947C20 4.3547 20 3.2347 19.564 2.3787C19.1805 1.62609 18.5686 1.01419 17.816 0.630702C16.96 0.194702 15.84 0.194702 13.6 0.194702H6.4C4.16 0.194702 3.04 0.194702 2.184 0.630702C1.43139 1.01419 0.819488 1.62609 0.436 2.3787ZM16.042 5.2787C16.2481 5.2787 16.4495 5.21759 16.6209 5.10309C16.7923 4.9886 16.9258 4.82586 17.0047 4.63546C17.0835 4.44506 17.1042 4.23555 17.064 4.03342C17.0238 3.83129 16.9245 3.64562 16.7788 3.4999C16.6331 3.35417 16.4474 3.25493 16.2453 3.21472C16.0432 3.17452 15.8336 3.19515 15.6432 3.27402C15.4528 3.35289 15.2901 3.48644 15.1756 3.6578C15.0611 3.82915 15 4.03061 15 4.2367C15.0003 4.51288 15.1102 4.77766 15.3055 4.97286C15.5009 5.16806 15.7658 5.2787 16.042 5.2787ZM5 10.1947C5 9.2058 5.29324 8.2391 5.84265 7.41685C6.39206 6.59461 7.17295 5.95374 8.08658 5.5753C9.00021 5.19687 10.0055 5.09785 10.9755 5.29078C11.9454 5.4837 12.8363 5.95991 13.5355 6.65917C14.2348 7.35843 14.711 8.24935 14.9039 9.21925C15.0969 10.1892 14.9978 11.1945 14.6194 12.1081C14.241 13.0217 13.6001 13.8026 12.7779 14.352C11.9556 14.9015 10.9889 15.1947 10 15.1947C8.67392 15.1947 7.40215 14.6679 6.46447 13.7302C5.52678 12.7926 5 11.5208 5 10.1947Z" fill="#142634"/>
</svg>
