<svg xmlns="http://www.w3.org/2000/svg" height="24px" viewBox="0 0 24 24" width="24px" class="styled__Svg-sc-1j66vyb-0 jqcukv"><path fill-rule="evenodd" clip-rule="evenodd" d="M1.141 2.379C.705 3.235.705 4.355.705 6.595v7.2c0 2.24 0 3.36.436 4.216a4 4 0 0 0 1.748 1.748c.856.436 1.976.436 4.216.436h7.2c2.24 0 3.36 0 4.216-.436a4 4 0 0 0 1.748-1.748c.436-.856.436-1.976.436-4.216v-7.2c0-2.24 0-3.36-.436-4.216A4 4 0 0 0 18.521.63c-.856-.436-1.976-.436-4.216-.436h-7.2c-2.24 0-3.36 0-4.216.436a4 4 0 0 0-1.748 1.748Zm3.73 4.483v9.166h2.5V6.862h-2.5Zm-.207-2.527a1.459 1.459 0 1 0 2.918-.022 1.459 1.459 0 0 0-2.918.022Zm10.21 11.693h2.5v-5.633c0-4.378-4.67-4.22-5.835-2.064V6.86h-2.5v9.167h2.5v-4.67c0-2.594 3.334-2.806 3.334 0v4.67Z" fill="#fff"></path></svg>