<svg width="40" height="40" viewBox="0 0 40 40" fill="none" xmlns="http://www.w3.org/2000/svg">
<path d="M4.27747 12.1387C4.27747 11.2704 4.98139 10.5665 5.84972 10.5665H34.1503C35.0186 10.5665 35.7225 11.2704 35.7225 12.1387C35.7225 13.0071 35.0186 13.711 34.1503 13.711H5.84972C4.98139 13.711 4.27747 13.0071 4.27747 12.1387Z" fill="white"/>
<path d="M10.5665 20C10.5665 19.1317 11.2704 18.4277 12.1387 18.4277H34.1503C35.0186 18.4277 35.7225 19.1317 35.7225 20C35.7225 20.8683 35.0186 21.5722 34.1503 21.5722H12.1387C11.2704 21.5722 10.5665 20.8683 10.5665 20Z" fill="white"/>
<path d="M4.27747 27.8613C4.27747 26.9929 4.98139 26.289 5.84972 26.289H34.1503C35.0186 26.289 35.7225 26.9929 35.7225 27.8613C35.7225 28.7296 35.0186 29.4335 34.1503 29.4335H5.84972C4.98139 29.4335 4.27747 28.7296 4.27747 27.8613Z" fill="white"/>
</svg>
