<svg width="74" height="80" fill="none" xmlns="http://www.w3.org/2000/svg"><g filter="url(#a)" fill="#fff"><path d="M67 48.155c0-3.584-2.901-6.315-6.315-6.315-3.413 0-6.314 2.901-6.314 6.315 0 3.584 2.901 6.314 6.314 6.314C64.1 54.47 67 51.568 67 48.155zM12.216 61.467c-.512-.683-1.195-1.366-2.048-1.536-.512-.171-1.195-.342-1.877-.342H3v12.459h5.29c1.878 0 3.243-.853 4.097-2.39.682-1.194 1.024-2.56 1.024-4.266 0-.683 0-1.365-.171-2.048-.341-.512-.512-1.195-1.024-1.877zm-1.877 6.656C9.827 69.317 8.973 70 7.779 70h-2.39v-8.021h2.39c1.194 0 2.048.341 2.389 1.024.341.682.512 1.706.512 2.901 0 .683-.17 1.536-.341 2.219zM17.848 66.587h6.144v-2.048h-6.144v-2.731h6.656v-2.219h-9.216v12.459h9.387v-2.219h-6.827v-3.242zM33.208 65.05l-2.219-.511c-.853-.171-1.365-.342-1.706-.512-.342-.171-.683-.512-.683-1.024s.17-.854.683-1.195c.341-.341 1.024-.341 1.706-.341.683 0 1.195.17 1.536.341.683.341 1.024.853 1.024 1.536h2.56c0-1.365-.512-2.39-1.536-3.072-.853-.683-2.048-1.024-3.413-1.024-1.536 0-2.73.341-3.584 1.024-.853.683-1.195 1.707-1.195 2.73 0 1.195.342 2.049 1.195 2.731.512.342 1.365.683 2.73 1.024l1.366.342c.853.17 1.365.341 1.707.512.341.17.512.512.512 1.024 0 .682-.342 1.194-1.024 1.365-.342.17-.854.17-1.536.17-1.024 0-1.707-.17-2.219-.682a8.32 8.32 0 0 1-.512-1.195h-2.39c0 1.366.513 2.219 1.366 3.072.853.683 2.219 1.024 3.925 1.024 1.536 0 2.902-.341 3.755-1.194.853-.683 1.365-1.707 1.365-2.902 0-1.024-.341-1.877-1.024-2.56-.682-.17-1.536-.512-2.389-.682zM40.547 59.59h-2.56v12.458h2.56V59.589zM48.739 67.44h2.901c-.17.853-.512 1.536-1.024 1.877-.512.512-1.195.683-2.048.683s-1.707-.341-2.39-1.024c-.682-.683-1.023-1.707-1.023-3.243 0-1.536.341-2.56 1.024-3.413.682-.683 1.536-1.195 2.389-1.195.512 0 1.024.171 1.365.342.683.341 1.195.853 1.366 1.706h2.56c-.171-1.194-.683-2.218-1.707-3.072-1.024-.853-2.219-1.194-3.755-1.194-1.877 0-3.242.682-4.437 1.877-1.024 1.195-1.707 2.73-1.707 4.779 0 2.048.512 3.584 1.707 4.608 1.024 1.194 2.39 1.706 4.096 1.706 1.024 0 1.877-.17 2.56-.682.341-.171.853-.683 1.365-1.195l.342 1.536h1.706V64.88h-5.12v2.56h-.17zM63.928 68.293l-4.779-8.704h-2.73v12.459h2.389v-8.704l4.95 8.704h2.73V59.589h-2.56v8.704zM47.373 41.84a19.083 19.083 0 0 0 19.115-19.115c0-6.826-3.584-12.8-8.875-16.213-2.901-1.877-6.485-2.901-10.24-2.901H35.085c-5.12 0-6.656 1.536-6.656 5.29 0 1.536 0 8.022.171 13.995v12.63a6.482 6.482 0 0 1-6.485 6.485 6.483 6.483 0 0 1-6.486-6.486V19.312c0-1.707-.682-2.73-2.389-2.73H5.39c-1.707 0-2.22 1.194-2.22 2.73v16.213A19.083 19.083 0 0 0 22.286 54.64c10.07 0 15.531-7.168 17.75-11.093.853-1.366 1.024-1.536 2.73-1.536l4.608-.171zm-6.485-18.944a6.482 6.482 0 0 1 6.485-6.485 6.482 6.482 0 0 1 6.486 6.485 6.482 6.482 0 0 1-6.486 6.485 6.482 6.482 0 0 1-6.485-6.485z"/></g><defs><filter id="a" x="0" y=".611" width="74" height="78.779" filterUnits="userSpaceOnUse" color-interpolation-filters="sRGB"><feFlood flood-opacity="0" result="BackgroundImageFix"/><feColorMatrix in="SourceAlpha" values="0 0 0 0 0 0 0 0 0 0 0 0 0 0 0 0 0 0 127 0" result="hardAlpha"/><feOffset dx="2" dy="2"/><feGaussianBlur stdDeviation="2.5"/><feComposite in2="hardAlpha" operator="out"/><feColorMatrix values="0 0 0 0 0 0 0 0 0 0 0 0 0 0 0 0 0 0 0.25 0"/><feBlend in2="BackgroundImageFix" result="effect1_dropShadow_1032_85"/><feBlend in="SourceGraphic" in2="effect1_dropShadow_1032_85" result="shape"/></filter></defs></svg>