<svg width="74" height="80" viewBox="0 0 74 80" fill="none" xmlns="http://www.w3.org/2000/svg">
<g filter="url(#filter0_d_1032_85)">
<path d="M67 48.1547C67 44.5707 64.0987 41.84 60.6853 41.84C57.272 41.84 54.3707 44.7413 54.3707 48.1547C54.3707 51.7387 57.272 54.4693 60.6853 54.4693C64.0987 54.4693 67 51.568 67 48.1547Z" fill="white"/>
<path d="M12.216 61.4667C11.704 60.784 11.0213 60.1013 10.168 59.9307C9.65599 59.76 8.97333 59.5893 8.29066 59.5893H3V72.048H8.29066C10.168 72.048 11.5333 71.1947 12.3867 69.6587C13.0693 68.464 13.4107 67.0987 13.4107 65.392C13.4107 64.7093 13.4107 64.0267 13.24 63.344C12.8987 62.832 12.728 62.1493 12.216 61.4667ZM10.3387 68.1227C9.82667 69.3173 8.97333 70 7.77867 70H5.38933V61.9787H7.77867C8.97333 61.9787 9.82666 62.32 10.168 63.0027C10.5093 63.6853 10.68 64.7093 10.68 65.904C10.68 66.5867 10.5093 67.44 10.3387 68.1227Z" fill="white"/>
<path d="M17.848 66.5867H23.992V64.5387H17.848V61.808H24.504V59.5893H15.288V72.048H24.6747V69.8293H17.848V66.5867Z" fill="white"/>
<path d="M33.208 65.0507L30.9893 64.5387C30.136 64.368 29.624 64.1973 29.2827 64.0267C28.9413 63.856 28.6 63.5147 28.6 63.0027C28.6 62.4907 28.7707 62.1493 29.2827 61.808C29.624 61.4667 30.3067 61.4667 30.9893 61.4667C31.672 61.4667 32.184 61.6373 32.5253 61.808C33.208 62.1493 33.5493 62.6613 33.5493 63.344H36.1093C36.1093 61.9787 35.5973 60.9547 34.5733 60.272C33.72 59.5893 32.5253 59.248 31.16 59.248C29.624 59.248 28.4293 59.5893 27.576 60.272C26.7227 60.9547 26.3813 61.9787 26.3813 63.0027C26.3813 64.1973 26.7227 65.0507 27.576 65.7333C28.088 66.0747 28.9413 66.416 30.3067 66.7573L31.672 67.0987C32.5253 67.2693 33.0373 67.44 33.3787 67.6107C33.72 67.7813 33.8907 68.1227 33.8907 68.6347C33.8907 69.3173 33.5493 69.8293 32.8667 70C32.5253 70.1707 32.0133 70.1707 31.3307 70.1707C30.3067 70.1707 29.624 70 29.112 69.488C28.9413 69.1467 28.7707 68.8053 28.6 68.2933H26.2107C26.2107 69.6587 26.7227 70.512 27.576 71.3653C28.4293 72.048 29.7947 72.3893 31.5013 72.3893C33.0373 72.3893 34.4027 72.048 35.256 71.1947C36.1093 70.512 36.6213 69.488 36.6213 68.2933C36.6213 67.2693 36.28 66.416 35.5973 65.7333C34.9147 65.5627 34.0613 65.2213 33.208 65.0507Z" fill="white"/>
<path d="M40.5467 59.5893H37.9867V72.048H40.5467V59.5893Z" fill="white"/>
<path d="M48.7387 67.44H51.64C51.4693 68.2933 51.128 68.976 50.616 69.3173C50.104 69.8293 49.4213 70 48.568 70C47.7147 70 46.8613 69.6587 46.1787 68.976C45.496 68.2933 45.1547 67.2693 45.1547 65.7333C45.1547 64.1973 45.496 63.1733 46.1787 62.32C46.8613 61.6373 47.7147 61.1253 48.568 61.1253C49.08 61.1253 49.592 61.296 49.9333 61.4667C50.616 61.808 51.128 62.32 51.2987 63.1733H53.8587C53.688 61.9787 53.176 60.9547 52.152 60.1013C51.128 59.248 49.9333 58.9067 48.3973 58.9067C46.52 58.9067 45.1547 59.5893 43.96 60.784C42.936 61.9787 42.2533 63.5147 42.2533 65.5627C42.2533 67.6107 42.7653 69.1467 43.96 70.1707C44.984 71.3653 46.3493 71.8773 48.056 71.8773C49.08 71.8773 49.9333 71.7067 50.616 71.1947C50.9573 71.024 51.4693 70.512 51.9813 70L52.3227 71.536H54.0293V64.88H48.9093V67.44H48.7387Z" fill="white"/>
<path d="M63.928 68.2933L59.1493 59.5893H56.4187V72.048H58.808V63.344L63.7573 72.048H66.488V59.5893H63.928V68.2933Z" fill="white"/>
<path d="M47.3733 41.84C57.9547 41.84 66.488 33.3067 66.488 22.7253C66.488 15.8987 62.904 9.92532 57.6133 6.51199C54.712 4.63466 51.128 3.61066 47.3733 3.61066C41.4 3.61066 38.84 3.61066 35.0853 3.61066C29.9653 3.61066 28.4293 5.14666 28.4293 8.90132C28.4293 10.4373 28.4293 16.9227 28.6 22.896V35.5253C28.6 39.1093 25.6987 42.0107 22.1147 42.0107C18.5307 42.0107 15.6293 39.1093 15.6293 35.5253V19.312C15.6293 17.6053 14.9467 16.5813 13.24 16.5813H5.38933C3.68266 16.5813 3.17066 17.776 3.17066 19.312V35.5253C3.17066 46.1067 11.704 54.64 22.2853 54.64C32.3547 54.64 37.816 47.472 40.0347 43.5467C40.888 42.1813 41.0587 42.0107 42.7653 42.0107L47.3733 41.84ZM40.888 22.896C40.888 19.312 43.7893 16.4107 47.3733 16.4107C50.9573 16.4107 53.8587 19.312 53.8587 22.896C53.8587 26.48 50.9573 29.3813 47.3733 29.3813C43.7893 29.3813 40.888 26.48 40.888 22.896Z" fill="white"/>
</g>
<defs>
<filter id="filter0_d_1032_85" x="0" y="0.610657" width="74" height="78.7787" filterUnits="userSpaceOnUse" color-interpolation-filters="sRGB">
<feFlood flood-opacity="0" result="BackgroundImageFix"/>
<feColorMatrix in="SourceAlpha" type="matrix" values="0 0 0 0 0 0 0 0 0 0 0 0 0 0 0 0 0 0 127 0" result="hardAlpha"/>
<feOffset dx="2" dy="2"/>
<feGaussianBlur stdDeviation="2.5"/>
<feComposite in2="hardAlpha" operator="out"/>
<feColorMatrix type="matrix" values="0 0 0 0 0 0 0 0 0 0 0 0 0 0 0 0 0 0 0.25 0"/>
<feBlend mode="normal" in2="BackgroundImageFix" result="effect1_dropShadow_1032_85"/>
<feBlend mode="normal" in="SourceGraphic" in2="effect1_dropShadow_1032_85" result="shape"/>
</filter>
</defs>
</svg>
