<svg width="51" height="53" xmlns="http://www.w3.org/2000/svg"><g filter="url(#brand-updesign__a)" fill="#fff"><path d="M43.705 30.84a3.938 3.938 0 0 0-3.947-3.947c-2.133 0-3.946 1.814-3.946 3.947a3.938 3.938 0 0 0 3.946 3.947c2.134 0 3.947-1.814 3.947-3.947Zm-34.24 8.32c-.32-.427-.747-.853-1.28-.96a3.834 3.834 0 0 0-1.173-.213H3.705v7.786h3.307c1.173 0 2.026-.533 2.56-1.493.426-.747.64-1.6.64-2.667 0-.426 0-.853-.107-1.28-.213-.32-.32-.746-.64-1.173Zm-1.173 4.16c-.32.747-.854 1.173-1.6 1.173H5.198V39.48h1.494c.746 0 1.28.213 1.493.64.213.427.32 1.067.32 1.813 0 .427-.107.96-.213 1.387Zm4.693-.96h3.84v-1.28h-3.84v-1.707h4.16v-1.386h-5.76v7.786h5.867v-1.386h-4.267V42.36Zm9.6-.96-1.387-.32c-.533-.107-.853-.213-1.066-.32-.214-.107-.427-.32-.427-.64s.107-.533.427-.747c.213-.213.64-.213 1.066-.213.427 0 .747.107.96.213.427.214.64.534.64.96h1.6c0-.853-.32-1.493-.96-1.92-.533-.426-1.28-.64-2.133-.64-.96 0-1.707.214-2.24.64-.533.427-.747 1.067-.747 1.707 0 .747.214 1.28.747 1.707.32.213.853.426 1.707.64l.853.213c.533.107.853.213 1.067.32.213.107.32.32.32.64 0 .427-.214.747-.64.853-.214.107-.534.107-.96.107-.64 0-1.067-.107-1.387-.427a5.186 5.186 0 0 1-.32-.746h-1.493c0 .853.32 1.386.853 1.92.533.426 1.387.64 2.453.64.96 0 1.814-.214 2.347-.747a2.279 2.279 0 0 0 .853-1.813c0-.64-.213-1.174-.64-1.6-.426-.107-.96-.32-1.493-.427Zm4.587-3.413h-1.6v7.786h1.6v-7.786Zm5.12 4.906h1.813c-.107.534-.32.96-.64 1.174-.32.32-.747.426-1.28.426a2.106 2.106 0 0 1-1.493-.64c-.427-.426-.64-1.066-.64-2.026 0-.96.213-1.6.64-2.134.426-.426.96-.746 1.493-.746.32 0 .64.106.853.213.427.213.747.533.854 1.067h1.6a2.927 2.927 0 0 0-1.067-1.92c-.64-.534-1.387-.747-2.347-.747-1.173 0-2.026.427-2.773 1.173-.64.747-1.067 1.707-1.067 2.987s.32 2.24 1.067 2.88c.64.747 1.493 1.067 2.56 1.067.64 0 1.173-.107 1.6-.427.213-.107.533-.427.853-.747l.214.96h1.066v-4.16h-3.2v1.6h-.106Zm9.493.534-2.987-5.44h-1.706v7.786h1.493v-5.44l3.093 5.44h1.707v-7.786h-1.6v5.44ZM31.438 26.893a11.927 11.927 0 0 0 11.947-11.946c0-4.267-2.24-8-5.547-10.134C36.025 3.64 33.785 3 31.438 3h-7.68c-3.2 0-4.16.96-4.16 3.307 0 .96 0 5.013.107 8.746v7.894A4.052 4.052 0 0 1 15.652 27a4.051 4.051 0 0 1-4.054-4.053V12.813c0-1.066-.426-1.706-1.493-1.706H5.198c-1.066 0-1.386.746-1.386 1.706v10.134a11.927 11.927 0 0 0 11.946 11.946c6.294 0 9.707-4.48 11.094-6.933.533-.853.64-.96 1.706-.96l2.88-.107Zm-4.053-11.84A4.051 4.051 0 0 1 31.438 11a4.051 4.051 0 0 1 4.054 4.053 4.052 4.052 0 0 1-4.054 4.054 4.052 4.052 0 0 1-4.053-4.054Z"/></g><defs><filter id="brand-updesign__a" x=".705" y="0" width="50" height="52.987" filterUnits="userSpaceOnUse" color-interpolation-filters="sRGB"><feFlood flood-opacity="0" result="BackgroundImageFix"/><feColorMatrix in="SourceAlpha" values="0 0 0 0 0 0 0 0 0 0 0 0 0 0 0 0 0 0 127 0" result="hardAlpha"/><feOffset dx="2" dy="2"/><feGaussianBlur stdDeviation="2.5"/><feComposite in2="hardAlpha" operator="out"/><feColorMatrix values="0 0 0 0 0 0 0 0 0 0 0 0 0 0 0 0 0 0 0.25 0"/><feBlend in2="BackgroundImageFix" result="effect1_dropShadow_20_964"/><feBlend in="SourceGraphic" in2="effect1_dropShadow_20_964" result="shape"/></filter></defs></svg>